<svg xmlns="http://www.w3.org/2000/svg" xmlns:xlink="http://www.w3.org/1999/xlink" viewBox="0 0 1366.498 658.587">
  <defs>
    <linearGradient id="linear-gradient" x1="0.5" x2="0.5" y2="1" gradientUnits="objectBoundingBox">
      <stop offset="0" stop-color="#226cda"/>
      <stop offset="1" stop-color="#416ad2"/>
    </linearGradient>
    <linearGradient id="linear-gradient-2" x1="0.5" x2="0.5" y2="1" gradientUnits="objectBoundingBox">
      <stop offset="0" stop-color="#2262da"/>
      <stop offset="1" stop-color="#416ad2"/>
    </linearGradient>
  </defs>
  <g id="Group_17867" data-name="Group 17867" transform="translate(22149.998 2019.001)">
    <g id="Group_17859" data-name="Group 17859" transform="translate(-21447.564 -1907.56)">
      <path id="Intersection_2" data-name="Intersection 2" d="M230.675,547.477,14.451,223.628c-30.336-45.436-11.328-91.474,42.206-102.3L565.542,18.606l-1.154-.58L657.98,0V527.477a20,20,0,0,1-20,20Z" transform="translate(-154.957 -111.441) rotate(90)" fill="url(#linear-gradient)" style="mix-blend-mode: lighten;isolation: isolate"/>
    </g>
    <path id="Intersection_6" data-name="Intersection 6" d="M111.332,498.086A265.768,265.768,0,0,1,18.743,378.3a277.461,277.461,0,0,1,3.632-209.4C81.6,29.361,239.946-36.875,376.128,20.851a262.156,262.156,0,0,1,72.313,45.9v407.37a276,276,0,0,1-29.675,23.964ZM216.139,138.2a149.61,149.61,0,0,0-81.247,191.512c13.66,34.781,39.915,63.756,76.562,79.32,36.667,15.575,75.746,14.348,110.259.027a149.686,149.686,0,0,0,81.243-191.515C389.3,182.7,363,153.823,326.336,138.224a140.118,140.118,0,0,0-54.866-11.236A143.744,143.744,0,0,0,216.139,138.2Z" transform="translate(-21232.441 -1859)" stroke="rgba(0,0,0,0)" stroke-width="1" fill="url(#linear-gradient-2)"/>
  </g>
</svg>
