<svg id="logo-ca-gov-teal" xmlns="http://www.w3.org/2000/svg" width="33.621" height="24.749" viewBox="0 0 33.621 24.749">
  <path id="Path_9594" data-name="Path 9594" d="M21.639,11.032q.144-.465.722-2.5.144-.522.722-2.113c.39-1.085.7-1.956.928-2.608a12.151,12.151,0,0,0-2.063,1.826A67.237,67.237,0,0,0,15.5,13.4a19.7,19.7,0,0,1,3.668-1.787,9.419,9.419,0,0,1,2.471-.582ZM21.2,12.774c-7.9,0-11.348,12.733-16.822,12.733A3.2,3.2,0,0,1,1.49,23.814a4.683,4.683,0,0,1-.652-2.47q0-3.471,3.255-8.787A32.215,32.215,0,0,1,9.961,5.285q2.662-2.371,4.564-2.371a1.913,1.913,0,0,1,.918.184,1.937,1.937,0,0,1,.725.6,2.4,2.4,0,0,1,.452,1.488A7.957,7.957,0,0,1,15.588,8.75a12.965,12.965,0,0,1-2.282,3.091q-.89.889-1.4.887a.919.919,0,0,1-.578-.289.94.94,0,0,1-.25-.6q0-.563.97-1.289a9.292,9.292,0,0,0,2.185-2.259,5.76,5.76,0,0,0,1.192-3,1.1,1.1,0,0,0-.214-.743.825.825,0,0,0-.645-.24,4.7,4.7,0,0,0-2.486,1.3A25.965,25.965,0,0,0,8.213,9.562a27.581,27.581,0,0,0-3.954,6.26,14.036,14.036,0,0,0-1.4,5.446,2.819,2.819,0,0,0,.619,1.826,2.026,2.026,0,0,0,.734.636,2,2,0,0,0,.94.22c2.5-.094,5.62-5.869,6.584-7.214C21.282,3.406,22.014,3.367,23.461,1.982Q24.722.759,25.391.759a.941.941,0,0,1,.4.09.951.951,0,0,1,.326.249,1.034,1.034,0,0,1,.254.672,5.2,5.2,0,0,1-.443,1.58q-.774,1.985-1.467,4.238-.606,2-.815,3.067a2.778,2.778,0,0,0,.381-.018c.306,0,.562-.015.774-.015q.926,0,.923.709a1.051,1.051,0,0,1-.2.6.8.8,0,0,1-.452.365,2.445,2.445,0,0,1-.516.031,5.922,5.922,0,0,0-1.351.112c-.111.339-.4,3.211-.833,3.308-1.329,1.174-1.228-2.608-1.156-2.991Z" transform="translate(-0.837 -0.759)" fill="#fff"/>
  <path id="Path_9595" data-name="Path 9595" d="M15.914,26.189a1.248,1.248,0,0,1,.8.292,1.276,1.276,0,0,1-.326,2.153,1.243,1.243,0,0,1-.845.039,1.258,1.258,0,0,1-.678-.511,1.281,1.281,0,0,1,.163-1.6,1.214,1.214,0,0,1,.408-.279,1.2,1.2,0,0,1,.483-.092Z" transform="translate(-3.392 -5.461)" fill="#fff"/>
  <path id="Path_9596" data-name="Path 9596" d="M24.207,21.764l-.882.882a2.6,2.6,0,0,0-1.95-.894,2.215,2.215,0,0,0-1.624.652,2.137,2.137,0,0,0-.658,1.58,2.2,2.2,0,0,0,.681,1.63,2.307,2.307,0,0,0,1.679.668,2.03,2.03,0,0,0,1.094-.276,1.938,1.938,0,0,0,.717-.863H21.35V23.957h3.32v.282a3.273,3.273,0,0,1-.449,1.654,3.127,3.127,0,0,1-1.158,1.195,3.285,3.285,0,0,1-1.671.412,3.673,3.673,0,0,1-1.828-.452,3.286,3.286,0,0,1-1.274-1.28,3.61,3.61,0,0,1-.467-1.793,3.361,3.361,0,0,1,.864-2.3,3.41,3.41,0,0,1,1.206-.884,3.375,3.375,0,0,1,1.467-.28,4.042,4.042,0,0,1,1.61.321,3.709,3.709,0,0,1,1.236.934Z" transform="translate(-3.978 -4.412)" fill="#fff"/>
  <path id="Path_9597" data-name="Path 9597" d="M30.16,20.508a3.252,3.252,0,0,1,2.4,1.02,3.581,3.581,0,0,1,0,4.956,3.408,3.408,0,0,1-4.867-.026,3.591,3.591,0,0,1-.516-4.217,3.473,3.473,0,0,1,1.259-1.27,3.423,3.423,0,0,1,1.717-.468Zm-.018,1.241a2.034,2.034,0,0,0-1.529.644,2.258,2.258,0,0,0-.619,1.63,2.146,2.146,0,0,0,.182.965,2.174,2.174,0,0,0,1.985,1.283,2.021,2.021,0,0,0,1.511-.652,2.364,2.364,0,0,0,0-3.213,2.038,2.038,0,0,0-.7-.495,2.017,2.017,0,0,0-.835-.162Z" transform="translate(-5.623 -4.41)" fill="#fff"/>
  <path id="Path_9598" data-name="Path 9598" d="M34.833,20.713H36.12l1.653,4.727,1.69-4.727h1.282L38.369,27.37H37.162Z" transform="translate(-7.124 -4.449)" fill="#fff"/>
</svg>
