<svg xmlns="http://www.w3.org/2000/svg" width="50.086" height="18.819" viewBox="0 0 50.086 18.819">
  <g id="Group_17394" data-name="Group 17394" transform="translate(0 0)">
    <path id="Path_2760" data-name="Path 2760" d="M68.208,322.936l.05-.055a60.558,60.558,0,0,1-8.97-1.608.436.436,0,0,1-.13-.055c-8.905-5.414-15.231-5.93-17.31-5.93h-.766a29.361,29.361,0,0,0-19.293,7.448.5.5,0,0,0-.16.361v2.779a4.634,4.634,0,0,0,1.182,3.1.76.76,0,0,0,1.3-.328l0-.006a1.164,1.164,0,0,0-.187-.986,2.939,2.939,0,0,1-.6-1.781v-2.229A27.654,27.654,0,0,1,41.1,317.016h.751a21.941,21.941,0,0,1,5.645.877,42.4,42.4,0,0,1,10.753,4.8,2.18,2.18,0,0,0,.591.25A62.623,62.623,0,0,0,66.41,324.4l1.5.235a2.459,2.459,0,0,1,2.094,2.439l.01,1.583a.175.175,0,0,1-.175.175H64.957a4.427,4.427,0,0,0-8.69,0H53.906a.882.882,0,0,0-.87.733h0a.825.825,0,0,0,.813.965h2.423a4.423,4.423,0,0,0,8.68,0h4.888a1.873,1.873,0,0,0,1.873-1.873v-1.608A4.178,4.178,0,0,0,68.208,322.936Zm-7.243,9.444a2.731,2.731,0,1,1,2.352-2.353A2.732,2.732,0,0,1,60.965,332.38Z" transform="translate(-21.628 -315.288)" fill="#fff"/>
    <path id="Path_2761" data-name="Path 2761" d="M113.252,339.147a.932.932,0,0,1,0,1.317h0l-4.213,4.213a.931.931,0,0,1-1.317,0h0l-1.992-1.992a.932.932,0,1,1,1.317-1.317l1.336,1.336,3.557-3.557A.931.931,0,0,1,113.252,339.147Z" transform="translate(-69.377 -328.724)" fill="#4db853"/>
    <g id="Group_16163" data-name="Group 16163" transform="translate(4.776 7.4)">
      <path id="Path_2762" data-name="Path 2762" d="M58.02,334.4a1.308,1.308,0,0,1,.375.967,1.25,1.25,0,0,1-.244.8,1.351,1.351,0,0,1-.707.441,4.2,4.2,0,0,1-1.154.135H54.976V334h1.315A2.638,2.638,0,0,1,58.02,334.4Zm1.447,3.009a2.473,2.473,0,0,0,.907-2.078,2.877,2.877,0,0,0-.223-1.157,2.3,2.3,0,0,0-.654-.869,2.605,2.605,0,0,0-1.023-.508,7.017,7.017,0,0,0-1.71-.16H54.259a1.415,1.415,0,0,0-.94.257,1.084,1.084,0,0,0-.3.857v6.918a1.13,1.13,0,0,0,.27.817,1.024,1.024,0,0,0,1.407,0,1.134,1.134,0,0,0,.276-.827v-2.541h1.789A4.345,4.345,0,0,0,59.467,337.406ZM44.9,332.766a.814.814,0,0,0-.707-.285.941.941,0,0,0-.677.257.774.774,0,0,0-.27.569,1.323,1.323,0,0,0,.043.3,2.255,2.255,0,0,0,.105.331c.042.1.082.206.122.312l2.295,5.816q.125.336.25.637a2.733,2.733,0,0,0,.293.536,1.244,1.244,0,0,0,.44.38,1.417,1.417,0,0,0,.668.144,1.4,1.4,0,0,0,.668-.147,1.265,1.265,0,0,0,.437-.377,2.642,2.642,0,0,0,.289-.533q.125-.3.25-.64l2.334-5.865q.059-.159.119-.309a2.568,2.568,0,0,0,.1-.306,1.187,1.187,0,0,0,.039-.291.722.722,0,0,0-.121-.389.894.894,0,0,0-.336-.31.954.954,0,0,0-.464-.116.871.871,0,0,0-.539.15.9.9,0,0,0-.282.337q-.086.187-.257.664l-2.19,6.061-2.183-6.018A3.65,3.65,0,0,0,44.9,332.766ZM36.219,340.8a1.926,1.926,0,0,0,.207.474,1.028,1.028,0,0,0,.368.352,1.133,1.133,0,0,0,.578.138,1.075,1.075,0,0,0,.71-.214,1.132,1.132,0,0,0,.352-.474q.095-.26.246-.817l1.546-5.718v6.2a1.067,1.067,0,0,0,.25.772.851.851,0,0,0,.638.257.874.874,0,0,0,.661-.257,1.076,1.076,0,0,0,.247-.772v-7.1a.862.862,0,0,0-.329-.793,1.67,1.67,0,0,0-.888-.205h-.6a2.47,2.47,0,0,0-.793.092.645.645,0,0,0-.365.331,4.883,4.883,0,0,0-.27.778l-1.4,4.916-1.4-4.916a4.892,4.892,0,0,0-.269-.778.647.647,0,0,0-.365-.331,2.462,2.462,0,0,0-.792-.092H33.94a1.67,1.67,0,0,0-.888.205.862.862,0,0,0-.328.793v7.1a1.065,1.065,0,0,0,.25.775.953.953,0,0,0,1.3,0,1.076,1.076,0,0,0,.247-.772v-6.2l1.545,5.718Q36.143,340.538,36.219,340.8Z" transform="translate(-32.724 -332.481)" fill="#fff"/>
    </g>
  </g>
</svg>
