<svg id="surface1" xmlns="http://www.w3.org/2000/svg" width="50.261" height="20.105" viewBox="0 0 50.261 20.105">
  <g id="Group_17397" data-name="Group 17397" transform="translate(8.659 0)">
    <path id="Path_9524" data-name="Path 9524" d="M23.771-.035h.467a.705.705,0,0,1,.493.714h-.356Q24.307.151,23.8.336a.271.271,0,0,0-.083.439l.851.356a.6.6,0,0,1-.028.989.97.97,0,0,1-1.041,0,.735.735,0,0,1-.275-.59h.384a.4.4,0,0,0,.412.412.374.374,0,0,0,.41-.329.231.231,0,0,0-.081-.179L23.5,1.076a.6.6,0,0,1-.151-.81A.869.869,0,0,1,23.771-.035Zm0,0" transform="translate(-23.223 0.035)" fill="#fff" fill-rule="evenodd"/>
  </g>
  <g id="Group_17398" data-name="Group 17398" transform="translate(10.359 0)">
    <path id="Path_9525" data-name="Path 9525" d="M27.789-.035h1.7V.294H28.8v1.95h-.356V.294h-.657Zm0,0" transform="translate(-27.789 0.035)" fill="#fff" fill-rule="evenodd"/>
  </g>
  <g id="Group_17399" data-name="Group 17399" transform="translate(11.921 0)">
    <path id="Path_9526" data-name="Path 9526" d="M32.834-.035h.329q.425,1.123.849,2.251a.736.736,0,0,1-.4,0q-.085-.236-.179-.467a3.539,3.539,0,0,0-.877,0c-.061.161-.125.321-.191.481a.923.923,0,0,1-.384-.015Q32.41,1.088,32.834-.035Zm.137.6a.207.207,0,0,1,.1.137c.086.227.164.457.233.688h-.6Q32.832.981,32.97.568Zm0,0" transform="translate(-31.984 0.035)" fill="#fff" fill-rule="evenodd"/>
  </g>
  <g id="Group_17400" data-name="Group 17400" transform="translate(13.812 0)">
    <path id="Path_9527" data-name="Path 9527" d="M37.063-.035h1.7V.294H38.1v1.95h-.356V.294h-.685Zm0,0" transform="translate(-37.063 0.035)" fill="#fff" fill-rule="evenodd"/>
  </g>
  <g id="Group_17401" data-name="Group 17401" transform="translate(15.813 0)">
    <path id="Path_9528" data-name="Path 9528" d="M42.438-.035h1.507V.294h-1.15V.9h1.041v.329H42.794v.686h1.178v.33H42.438Zm0,0" transform="translate(-42.438 0.035)" fill="#fff" fill-rule="evenodd"/>
  </g>
  <g id="Group_17402" data-name="Group 17402" transform="translate(18.361 0)">
    <path id="Path_9529" data-name="Path 9529" d="M50.131-.035H50.6a1.169,1.169,0,0,1,.835,1.345A1.081,1.081,0,0,1,49.281,1.1,1.217,1.217,0,0,1,50.131-.035Zm.111.329a.779.779,0,0,1,.849.81.763.763,0,0,1-.877.8.818.818,0,0,1-.535-.974A.83.83,0,0,1,50.241.294Zm0,0" transform="translate(-49.281 0.035)" fill="#fff" fill-rule="evenodd"/>
  </g>
  <g id="Group_17403" data-name="Group 17403" transform="translate(20.883 0)">
    <path id="Path_9530" data-name="Path 9530" d="M56.055-.035H57.48V.294H56.411V.952h.877v.33h-.877v.961h-.356Zm0,0" transform="translate(-56.055 0.035)" fill="#fff" fill-rule="evenodd"/>
  </g>
  <g id="Group_17404" data-name="Group 17404" transform="translate(23.304 0)">
    <path id="Path_9531" data-name="Path 9531" d="M63.4-.035h.467a1,1,0,0,1,.739.8,1.351,1.351,0,0,1-.382-.028.616.616,0,0,0-.823-.4A.87.87,0,0,0,63,1.474a.678.678,0,0,0,1.028.316.668.668,0,0,0,.218-.316.689.689,0,0,1,.384,0,1.026,1.026,0,0,1-1.479.673A1.217,1.217,0,0,1,62.617.705,1.172,1.172,0,0,1,63.4-.035Zm0,0" transform="translate(-62.558 0.035)" fill="#fff" fill-rule="evenodd"/>
  </g>
  <g id="Group_17405" data-name="Group 17405" transform="translate(25.487 0)">
    <path id="Path_9532" data-name="Path 9532" d="M69.244-.035H69.6l.822,2.279a1.361,1.361,0,0,1-.384-.028c-.06-.163-.115-.329-.164-.494h-.9c-.054.175-.109.348-.164.522h-.382Q68.821,1.1,69.244-.035Zm.164.576c.116.273.227.553.329.838a2.4,2.4,0,0,1-.63-.013Q69.273.957,69.408.541Zm0,0" transform="translate(-68.422 0.035)" fill="#fff" fill-rule="evenodd"/>
  </g>
  <g id="Group_17406" data-name="Group 17406" transform="translate(27.788 0)">
    <path id="Path_9533" data-name="Path 9533" d="M74.6-.035h.384V1.914h1.041v.33H74.6Zm0,0" transform="translate(-74.602 0.035)" fill="#fff" fill-rule="evenodd"/>
  </g>
  <g id="Group_17407" data-name="Group 17407" transform="translate(29.569 0)">
    <path id="Path_9534" data-name="Path 9534" d="M79.387-.035h.356V2.244h-.356Zm0,0" transform="translate(-79.387 0.035)" fill="#fff" fill-rule="evenodd"/>
  </g>
  <g id="Group_17408" data-name="Group 17408" transform="translate(30.502 0)">
    <path id="Path_9535" data-name="Path 9535" d="M81.891-.035h1.453V.294H82.275V.952h.877v.33h-.877v.961h-.384Zm0,0" transform="translate(-81.891 0.035)" fill="#fff" fill-rule="evenodd"/>
  </g>
  <g id="Group_17409" data-name="Group 17409" transform="translate(32.156 0)">
    <path id="Path_9536" data-name="Path 9536" d="M87.175-.035h.465a1.193,1.193,0,0,1,.836,1.318,1.071,1.071,0,0,1-2.138-.028A1.18,1.18,0,0,1,87.175-.035Zm.109.329a.78.78,0,0,1,.849.825.761.761,0,0,1-.877.782.738.738,0,0,1-.534-.59A.838.838,0,0,1,87.284.294Zm0,0" transform="translate(-86.335 0.035)" fill="#fff" fill-rule="evenodd"/>
  </g>
  <g id="Group_17410" data-name="Group 17410" transform="translate(34.722 0)">
    <path id="Path_9537" data-name="Path 9537" d="M93.227-.035H94.24a.714.714,0,0,1,.48,1.07.94.94,0,0,1-.369.288c.17.3.343.6.521.893a.79.79,0,0,1-.412,0c-.167-.271-.327-.544-.48-.823a1.257,1.257,0,0,0-.369-.028v.878h-.384Zm.384.329a2.947,2.947,0,0,1,.63.042.355.355,0,0,1,.151.535.394.394,0,0,1-.179.124q-.3.02-.6.013Zm0,0" transform="translate(-93.227 0.035)" fill="#fff" fill-rule="evenodd"/>
  </g>
  <g id="Group_17411" data-name="Group 17411" transform="translate(36.777 0)">
    <path id="Path_9538" data-name="Path 9538" d="M98.746-.035h.329Q99.581.737,100.1,1.5c.015-.512.019-1.025.015-1.537h.355V2.244a1,1,0,0,1-.329-.028q-.5-.774-1.027-1.537Q99.1,1.46,99.1,2.244h-.356Zm0,0" transform="translate(-98.746 0.035)" fill="#fff" fill-rule="evenodd"/>
  </g>
  <g id="Group_17412" data-name="Group 17412" transform="translate(39.079 0)">
    <path id="Path_9539" data-name="Path 9539" d="M104.93-.035h.384V2.244h-.384Zm0,0" transform="translate(-104.93 0.035)" fill="#fff" fill-rule="evenodd"/>
  </g>
  <g id="Group_17413" data-name="Group 17413" transform="translate(39.764 0)">
    <path id="Path_9540" data-name="Path 9540" d="M107.593-.035h.356q.406,1.139.849,2.266a3.235,3.235,0,0,1-.412.013c-.055-.175-.109-.348-.164-.522q-.438-.007-.877.015c-.067.157-.131.318-.192.48a1.361,1.361,0,0,1-.384.028Q107.182,1.105,107.593-.035Zm.164.576c.113.271.224.544.329.825a2.414,2.414,0,0,1-.631.013Q107.625.966,107.757.541Zm0,0" transform="translate(-106.77 0.035)" fill="#fff" fill-rule="evenodd"/>
  </g>
  <g id="Group_17414" data-name="Group 17414" transform="translate(7.893 3.403)">
    <path id="Path_9541" data-name="Path 9541" d="M21.712,9.107q4.686-.007,9.372.015a2.366,2.366,0,0,1,1.59.974q-5.755.055-11.51,0C21.347,9.765,21.529,9.435,21.712,9.107Zm0,0" transform="translate(-21.164 -9.105)" fill="#fff" fill-rule="evenodd"/>
  </g>
  <g id="Group_17415" data-name="Group 17415" transform="translate(22.69 3.487)">
    <path id="Path_9542" data-name="Path 9542" d="M61.4,9.332h4.741q-.017.467-.028.934-2.6.013-5.208-.028C61.083,9.938,61.248,9.637,61.4,9.332Zm0,0" transform="translate(-60.91 -9.332)" fill="#fff" fill-rule="evenodd"/>
  </g>
  <g id="Group_17416" data-name="Group 17416" transform="translate(30.228 3.484)">
    <path id="Path_9543" data-name="Path 9543" d="M81.95,9.327q2.384-.013,4.769.028l-.384.878q-2.589.055-5.179,0C81.414,9.924,81.68,9.623,81.95,9.327Zm0,0" transform="translate(-81.156 -9.323)" fill="#fff" fill-rule="evenodd"/>
  </g>
  <g id="Group_17417" data-name="Group 17417" transform="translate(36.969 3.487)">
    <path id="Path_9544" data-name="Path 9544" d="M99.646,9.332h4.412c-.071.314-.153.625-.247.934q-2.273.007-4.549-.013Q99.46,9.795,99.646,9.332Zm0,0" transform="translate(-99.262 -9.332)" fill="#fff" fill-rule="evenodd"/>
  </g>
  <g id="Group_17418" data-name="Group 17418" transform="translate(44.478 3.486)">
    <path id="Path_9545" data-name="Path 9545" d="M125.214,9.329v.055q-.308.425-.6.865-2.589.026-5.18,0c.228-.311.465-.612.713-.907Q122.679,9.323,125.214,9.329Zm0,0" transform="translate(-119.43 -9.328)" fill="#fff" fill-rule="evenodd"/>
  </g>
  <g id="Group_17419" data-name="Group 17419" transform="translate(5.672 4.529)">
    <path id="Path_9546" data-name="Path 9546" d="M17.2,12.133q5.918-.009,11.84.013a2.173,2.173,0,0,1,.329,1.085q-6.331.007-12.661-.013c.156-.266.31-.532.465-.8q-.986-.052-1.974-.111Zm0,0" transform="translate(-15.199 -12.131)" fill="#fff" fill-rule="evenodd"/>
  </g>
  <g id="Group_17420" data-name="Group 17420" transform="translate(20.772 4.532)">
    <path id="Path_9547" data-name="Path 9547" d="M57.486,12.137h5.4c-.015.362-.032.724-.055,1.085q-2.932.026-5.864,0c.159-.269.313-.538.465-.812q-.84-.05-1.672-.124Q56.628,12.221,57.486,12.137Zm0,0" transform="translate(-55.758 -12.137)" fill="#fff" fill-rule="evenodd"/>
  </g>
  <g id="Group_17421" data-name="Group 17421" transform="translate(28.144 4.532)">
    <path id="Path_9548" data-name="Path 9548" d="M77.4,12.137H82.74a11.658,11.658,0,0,1-.467,1.085q-2.864.026-5.727,0c.227-.275.464-.54.713-.8l-1.7-.111Q76.484,12.223,77.4,12.137Zm0,0" transform="translate(-75.559 -12.137)" fill="#fff" fill-rule="evenodd"/>
  </g>
  <g id="Group_17422" data-name="Group 17422" transform="translate(35.462 4.532)">
    <path id="Path_9549" data-name="Path 9549" d="M96.585,12.137h4.632q-.153.545-.329,1.085-2.33.02-4.66.013a6.3,6.3,0,0,1,.329-.81c-.446-.039-.894-.077-1.342-.111Q95.906,12.227,96.585,12.137Zm0,0" transform="translate(-95.215 -12.137)" fill="#fff" fill-rule="evenodd"/>
  </g>
  <g id="Group_17423" data-name="Group 17423" transform="translate(43.218 4.528)">
    <path id="Path_9550" data-name="Path 9550" d="M117.116,12.13q2.631-.015,5.262.028-.349.532-.713,1.057-2.646.026-5.289,0,.351-.432.685-.88c-.34-.015-.679-.042-1.014-.081Q116.588,12.2,117.116,12.13Zm0,0" transform="translate(-116.047 -12.126)" fill="#fff" fill-rule="evenodd"/>
  </g>
  <g id="Group_17424" data-name="Group 17424" transform="translate(4.138 5.794)">
    <path id="Path_9551" data-name="Path 9551" d="M13.628,15.527H26.81a3.52,3.52,0,0,1-.22,1.155q-2.714.039-5.426.026a.909.909,0,0,0-.042-.576.377.377,0,0,0-.287-.179q-.864-.028-1.728,0c-.132.244-.271.487-.41.729q-2.672.055-5.345,0c.177-.3.35-.593.521-.893-.017-.01-.036-.019-.055-.028q-1.37-.02-2.74-.083Q12.359,15.609,13.628,15.527Zm0,0" transform="translate(-11.078 -15.527)" fill="#fff" fill-rule="evenodd"/>
  </g>
  <g id="Group_17425" data-name="Group 17425" transform="translate(20.198 5.794)">
    <path id="Path_9552" data-name="Path 9552" d="M55.666,15.527H61.86q-.011.62-.028,1.236-3.316.007-6.632-.013.277-.5.576-.989-.781-.035-1.562-.083C54.7,15.626,55.186,15.577,55.666,15.527Zm0,0" transform="translate(-54.215 -15.527)" fill="#fff" fill-rule="evenodd"/>
  </g>
  <g id="Group_17426" data-name="Group 17426" transform="translate(27.898 5.794)">
    <path id="Path_9553" data-name="Path 9553" d="M75.748,15.527h6.03c-.163.412-.336.82-.521,1.223q-3.181.033-6.358-.015.458-.534.932-1.057c-.256-.026-.512-.045-.768-.055Q75.405,15.564,75.748,15.527Zm0,0" transform="translate(-74.898 -15.527)" fill="#fff" fill-rule="evenodd"/>
  </g>
  <g id="Group_17427" data-name="Group 17427" transform="translate(35.051 5.791)">
    <path id="Path_9554" data-name="Path 9554" d="M95.261,15.522q2.439-.013,4.878.028c-.131.4-.249.8-.356,1.209q-2.426.013-4.852-.028c.141-.314.278-.631.412-.947-.41-.042-.82-.079-1.233-.111C94.5,15.625,94.882,15.576,95.261,15.522Zm0,0" transform="translate(-94.109 -15.519)" fill="#fff" fill-rule="evenodd"/>
  </g>
  <g id="Group_17428" data-name="Group 17428" transform="translate(42.203 5.791)">
    <path id="Path_9555" data-name="Path 9555" d="M114.362,15.522q2.729-.013,5.454.028-.386.6-.794,1.181-2.7.055-5.4,0,.362-.493.739-.974c-.345-.039-.692-.065-1.041-.083C113.671,15.618,114.017,15.567,114.362,15.522Zm0,0" transform="translate(-113.32 -15.519)" fill="#fff" fill-rule="evenodd"/>
  </g>
  <g id="Group_17429" data-name="Group 17429" transform="translate(4.193 7.164)">
    <path id="Path_9556" data-name="Path 9556" d="M13.117,19.212q2.768-.015,5.535.026-.366.7-.766,1.387-2.685.035-5.372-.013c.2-.348.4-.7.6-1.044-.63-.065-1.259-.124-1.891-.179Q12.178,19.307,13.117,19.212Zm0,0" transform="translate(-11.227 -19.208)" fill="#fff" fill-rule="evenodd"/>
  </g>
  <g id="Group_17430" data-name="Group 17430" transform="translate(13.372 7.166)">
    <path id="Path_9557" data-name="Path 9557" d="M36.651,19.215q2.714-.009,5.426.013-.362.713-.766,1.4-2.714.035-5.428-.013Q36.3,19.933,36.651,19.215Zm0,0" transform="translate(-35.883 -19.213)" fill="#fff" fill-rule="evenodd"/>
  </g>
  <g id="Group_17431" data-name="Group 17431" transform="translate(19.841 7.222)">
    <path id="Path_9558" data-name="Path 9558" d="M54.327,19.363H67.563q-.266.687-.574,1.36-6.634.035-13.265-.013.257-.473.534-.934a.426.426,0,0,0,.07-.193q-.537-.031-1.069-.1C53.614,19.439,53.97,19.4,54.327,19.363Zm0,0" transform="translate(-53.258 -19.363)" fill="#fff" fill-rule="evenodd"/>
  </g>
  <g id="Group_17432" data-name="Group 17432" transform="translate(34.694 7.219)">
    <path id="Path_9559" data-name="Path 9559" d="M94.085,19.358q2.507-.013,5.014.028l-.41,1.319q-2.509.055-5.016,0l.467-1.1a8.289,8.289,0,0,0-.987-.124Q93.619,19.409,94.085,19.358Zm0,0" transform="translate(-93.152 -19.355)" fill="#fff" fill-rule="evenodd"/>
  </g>
  <g id="Group_17433" data-name="Group 17433" transform="translate(41.053 7.219)">
    <path id="Path_9560" data-name="Path 9560" d="M111.244,19.358q2.836-.013,5.673.028-.458.663-.9,1.332-2.781.028-5.563,0,.447-.587.9-1.166-.561-.059-1.124-.1Q110.743,19.4,111.244,19.358Zm0,0" transform="translate(-110.23 -19.355)" fill="#fff" fill-rule="evenodd"/>
  </g>
  <g id="Group_17434" data-name="Group 17434" transform="translate(2.356 8.867)">
    <path id="Path_9561" data-name="Path 9561" d="M8.623,23.784q3-.013,6,.028-.412.757-.823,1.511-2.712.041-5.426.028a12.471,12.471,0,0,1,.713-1.277q-1.4-.092-2.8-.192Q7.464,23.842,8.623,23.784Zm0,0" transform="translate(-6.293 -23.78)" fill="#fff" fill-rule="evenodd"/>
  </g>
  <g id="Group_17435" data-name="Group 17435" transform="translate(12.359 8.868)">
    <path id="Path_9562" data-name="Path 9562" d="M34.009,23.786q2.714-.007,5.428.015-.449.761-.877,1.539-2.7.026-5.4,0Q33.581,24.559,34.009,23.786Zm0,0" transform="translate(-33.16 -23.785)" fill="#fff" fill-rule="evenodd"/>
  </g>
  <g id="Group_17436" data-name="Group 17436" transform="translate(18.8 8.896)">
    <path id="Path_9563" data-name="Path 9563" d="M51.419,23.861q6.839-.007,13.675.015-.332.746-.657,1.5-6.756.041-13.511.028a14.716,14.716,0,0,1,.713-1.291.128.128,0,0,0-.055-.041q-.563-.048-1.123-.111Q50.943,23.9,51.419,23.861Zm0,0" transform="translate(-50.461 -23.859)" fill="#fff" fill-rule="evenodd"/>
  </g>
  <g id="Group_17437" data-name="Group 17437" transform="translate(34.009 8.898)">
    <path id="Path_9564" data-name="Path 9564" d="M92.108,23.863h5.316q-.212.77-.465,1.526-2.6.02-5.206.013.247-.648.521-1.291-.48-.081-.96-.151Q91.714,23.9,92.108,23.863Zm0,0" transform="translate(-91.313 -23.863)" fill="#fff" fill-rule="evenodd"/>
  </g>
  <g id="Group_17438" data-name="Group 17438" transform="translate(39.875 8.896)">
    <path id="Path_9565" data-name="Path 9565" d="M108.217,23.861q2.8-.007,5.59.015l-1.041,1.511q-2.849.033-5.7-.015Zm0,0" transform="translate(-107.066 -23.859)" fill="#fff" fill-rule="evenodd"/>
  </g>
  <g id="Group_17439" data-name="Group 17439" transform="translate(0 10.93)">
    <path id="Path_9566" data-name="Path 9566" d="M-.035,31.549v-.028q1.481-.048,2.96-.166.5-.875,1.014-1.744-.794-.072-1.59-.137c.484-.051.969-.1,1.453-.138q2.864-.033,5.727.015L7.967,32.207q.8.063,1.6.081a1.089,1.089,0,0,0,.932-.439,28.671,28.671,0,0,0,1.521-2.5q2.7-.055,5.4,0-.6,1.067-1.206,2.128l.109.015q.724-.046,1.44-.138.513-.9,1.027-1.8-.438-.05-.877-.109.4-.065.8-.111,6.891-.033,13.784.015-1.119,2.563-2.247,5.122-2.672.02-5.343.013.875-1.767,1.767-3.515-1.824,1.7-3.659,3.378l-.026-.083q.068-1.784.1-3.57-1.008,1.889-2.014,3.777-2.537.035-5.071-.015.8-1.425,1.617-2.842-.7-.046-1.4-.1-.414.707-.809,1.428a3.523,3.523,0,0,1-2.042,1.414,8.39,8.39,0,0,1-2.356.22q-4.084.028-8.167,0-.877-.007-1.754-.041l1.645-2.856Q1.349,31.6-.035,31.549Zm0,0" transform="translate(0.035 -29.323)" fill="#fff" fill-rule="evenodd"/>
  </g>
  <g id="Group_17440" data-name="Group 17440" transform="translate(31.899 10.929)">
    <path id="Path_9567" data-name="Path 9567" d="M87.782,29.321q5.6-.007,11.208.013-1.734,2.565-3.48,5.122-4.865.057-9.729,0,.615-1.409,1.206-2.829a.4.4,0,0,0-.137-.041q-.6-.031-1.206-.083c.484-.052.967-.1,1.453-.151q.395-.884.74-1.784l-.9-.1C87.218,29.416,87.5,29.365,87.782,29.321Zm0,0" transform="translate(-85.645 -29.32)" fill="#fff" fill-rule="evenodd"/>
  </g>
  <g id="Group_17441" data-name="Group 17441" transform="translate(19.814 17.467)">
    <path id="Path_9568" data-name="Path 9568" d="M53.7,46.881a1.88,1.88,0,0,1,.384.026.4.4,0,0,1-.083.221q-.388-.079-.329.329h.3v.22h-.3V48.94h-.247V47.676h-.246v-.22h.246A.5.5,0,0,1,53.7,46.881Zm0,0" transform="translate(-53.184 -46.88)" fill="#fff" fill-rule="evenodd"/>
  </g>
  <g id="Group_17442" data-name="Group 17442" transform="translate(1.259 17.492)">
    <path id="Path_9569" data-name="Path 9569" d="M3.348,46.95q.454-.007.9.015a1.03,1.03,0,0,1,.055,2.006q-.48.02-.96.013Zm.275.247a5.309,5.309,0,0,1,.548.015.722.722,0,0,1,.63.755.762.762,0,0,1-.576.756q-.3.02-.6.013Zm0,0" transform="translate(-3.348 -46.949)" fill="#fff" fill-rule="evenodd"/>
  </g>
  <g id="Group_17443" data-name="Group 17443" transform="translate(21.704 17.491)">
    <path id="Path_9570" data-name="Path 9570" d="M58.262,46.948a1.631,1.631,0,0,1,.412.028l.589,1.456q.321-.72.617-1.456a1.417,1.417,0,0,1,.384-.028v2.033h-.275q.007-.783-.013-1.565-.321.779-.617,1.565a.266.266,0,0,1-.164-.028q-.31-.755-.617-1.511c-.015.513-.019,1.025-.015,1.539h-.3Zm0,0" transform="translate(-58.262 -46.945)" fill="#fff" fill-rule="evenodd"/>
  </g>
  <g id="Group_17444" data-name="Group 17444" transform="translate(30.337 17.492)">
    <path id="Path_9571" data-name="Path 9571" d="M81.449,46.949h.329q.31.855.644,1.7.321-.84.657-1.675a1,1,0,0,1,.316-.028q-.373,1.012-.8,2.006a.6.6,0,0,1-.356,0Q81.835,47.955,81.449,46.949Zm0,0" transform="translate(-81.449 -46.947)" fill="#fff" fill-rule="evenodd"/>
  </g>
  <g id="Group_17445" data-name="Group 17445" transform="translate(34.118 17.494)">
    <path id="Path_9572" data-name="Path 9572" d="M91.605,46.953h.247q-.007.373.013.742a.706.706,0,0,1,.864-.124.5.5,0,0,0,.068.1,11.074,11.074,0,0,1,.041,1.319h-.246q.007-.55-.015-1.1a.281.281,0,0,0-.287-.193.747.747,0,0,0-.426.22c-.013.358-.017.714-.013,1.072h-.247Zm0,0" transform="translate(-91.605 -46.953)" fill="#fff" fill-rule="evenodd"/>
  </g>
  <g id="Group_17446" data-name="Group 17446" transform="translate(35.804 17.494)">
    <path id="Path_9573" data-name="Path 9573" d="M96.228,46.953c.2,0,.265.1.192.289q-.3.14-.288-.179A.2.2,0,0,1,96.228,46.953Zm0,0" transform="translate(-96.132 -46.953)" fill="#fff" fill-rule="evenodd"/>
  </g>
  <g id="Group_17447" data-name="Group 17447" transform="translate(38.093 17.494)">
    <path id="Path_9574" data-name="Path 9574" d="M102.281,46.953h.246v2.033h-.246Zm0,0" transform="translate(-102.281 -46.953)" fill="#fff" fill-rule="evenodd"/>
  </g>
  <g id="Group_17448" data-name="Group 17448" transform="translate(9.399 17.66)">
    <path id="Path_9575" data-name="Path 9575" d="M25.458,47.4H25.7v.384h.3V48h-.3q-.007.5.015.989a.173.173,0,0,0,.273.028.215.215,0,0,1,.041.234.446.446,0,0,1-.465,0,.217.217,0,0,1-.1-.151q-.02-.55-.013-1.1h-.247v-.22h.247Zm0,0" transform="translate(-25.211 -47.398)" fill="#fff" fill-rule="evenodd"/>
  </g>
  <g id="Group_17449" data-name="Group 17449" transform="translate(16.251 17.66)">
    <path id="Path_9576" data-name="Path 9576" d="M43.861,47.4h.273v.384h.275V48h-.275q-.007.508.015,1.017a.183.183,0,0,0,.26,0c.092.095.092.182,0,.26a.506.506,0,0,1-.439-.026.56.56,0,0,0-.068-.1A8.709,8.709,0,0,1,43.861,48h-.247v-.22h.247Zm0,0" transform="translate(-43.613 -47.398)" fill="#fff" fill-rule="evenodd"/>
  </g>
  <g id="Group_17450" data-name="Group 17450" transform="translate(25.76 17.66)">
    <path id="Path_9577" data-name="Path 9577" d="M69.4,47.4h.246v.384h.3V48h-.3q-.007.467.015.934c.055.15.151.177.287.083a1.419,1.419,0,0,1,.083.179.432.432,0,0,1-.521.055.348.348,0,0,1-.1-.179C69.4,48.716,69.4,48.36,69.4,48h-.247v-.22H69.4Zm0,0" transform="translate(-69.156 -47.398)" fill="#fff" fill-rule="evenodd"/>
  </g>
  <g id="Group_17451" data-name="Group 17451" transform="translate(3.309 18.014)">
    <path id="Path_9578" data-name="Path 9578" d="M9.408,48.352a.762.762,0,0,1,.9.852H9.134a.5.5,0,0,0,.6.48.672.672,0,0,0,.342-.179c.127.08.14.167.042.262a.9.9,0,0,1-.932.028.844.844,0,0,1-.26-1.03A.816.816,0,0,1,9.408,48.352Zm.054.22a.462.462,0,0,1,.576.441h-.9A.477.477,0,0,1,9.462,48.572Zm0,0" transform="translate(-8.854 -48.35)" fill="#fff" fill-rule="evenodd"/>
  </g>
  <g id="Group_17452" data-name="Group 17452" transform="translate(5.151 18.018)">
    <path id="Path_9579" data-name="Path 9579" d="M14.048,50.448H13.8V48.387h.247a.521.521,0,0,0,.013.164.709.709,0,0,1,.836-.1.863.863,0,0,1,.3.673q-.05.945-.958.729a.743.743,0,0,1-.179-.151C14.048,49.953,14.044,50.2,14.048,50.448Zm.356-1.869a.47.47,0,0,1,.506.441.567.567,0,0,1-.314.644.55.55,0,0,1-.535-.177,4.525,4.525,0,0,1,0-.688A.642.642,0,0,1,14.4,48.579Zm0,0" transform="translate(-13.801 -48.362)" fill="#fff" fill-rule="evenodd"/>
  </g>
  <g id="Group_17453" data-name="Group 17453" transform="translate(6.84 18.012)">
    <path id="Path_9580" data-name="Path 9580" d="M18.814,48.348a1.373,1.373,0,0,1,.548.068.555.555,0,0,1,.205.289q.022.576.015,1.153h-.247a.133.133,0,0,0-.028-.111.677.677,0,0,1-.766.07.54.54,0,0,1-.179-.59.5.5,0,0,1,.316-.289,1.613,1.613,0,0,1,.41,0,.644.644,0,0,1,.234.151c.063-.384-.1-.554-.48-.508a1.648,1.648,0,0,0-.316.179A.379.379,0,0,1,18.4,48.6.96.96,0,0,1,18.814,48.348Zm.109.742a.559.559,0,0,1,.4.192.371.371,0,0,1-.686.275A.321.321,0,0,1,18.923,49.09Zm0,0" transform="translate(-18.337 -48.344)" fill="#fff" fill-rule="evenodd"/>
  </g>
  <g id="Group_17454" data-name="Group 17454" transform="translate(8.55 18.016)">
    <path id="Path_9581" data-name="Path 9581" d="M23.532,48.355h.138a1.336,1.336,0,0,1-.015.275.429.429,0,0,0-.465.22c-.013.339-.019.678-.013,1.017H22.93V48.383h.247a.651.651,0,0,0,.013.192A1,1,0,0,1,23.532,48.355Zm0,0" transform="translate(-22.93 -48.355)" fill="#fff" fill-rule="evenodd"/>
  </g>
  <g id="Group_17455" data-name="Group 17455" transform="translate(10.523 18.001)">
    <path id="Path_9582" data-name="Path 9582" d="M28.8,48.33a.441.441,0,0,1,.535.247.614.614,0,0,1,.644-.233.368.368,0,0,1,.26.371q.02.563.013,1.126h-.273q.007-.563-.015-1.126a.253.253,0,0,0-.233-.166.6.6,0,0,0-.369.22c-.015.358-.019.714-.015,1.072h-.246q.007-.563-.015-1.126a.253.253,0,0,0-.233-.166.6.6,0,0,0-.369.22c-.015.358-.019.714-.015,1.072H28.23V48.357h.246a.482.482,0,0,0,.015.164A1.169,1.169,0,0,1,28.8,48.33Zm0,0" transform="translate(-28.23 -48.314)" fill="#fff" fill-rule="evenodd"/>
  </g>
  <g id="Group_17456" data-name="Group 17456" transform="translate(12.924 18.014)">
    <path id="Path_9583" data-name="Path 9583" d="M35.237,48.351q.9-.048.877.852-.589-.007-1.178.013a.537.537,0,0,0,.794.412l.179-.124a.9.9,0,0,1,.122.166.786.786,0,0,1-.589.247A.763.763,0,0,1,34.7,48.9.848.848,0,0,1,35.237,48.351Zm.028.22a.467.467,0,0,1,.6.441h-.9A.493.493,0,0,1,35.265,48.571Zm0,0" transform="translate(-34.678 -48.349)" fill="#fff" fill-rule="evenodd"/>
  </g>
  <g id="Group_17457" data-name="Group 17457" transform="translate(14.744 18.01)">
    <path id="Path_9584" data-name="Path 9584" d="M40.168,48.345a.894.894,0,0,1,.521.1.572.572,0,0,0,.068.1,11.075,11.075,0,0,1,.042,1.319h-.247q.007-.55-.013-1.1a.325.325,0,0,0-.452-.151.915.915,0,0,0-.233.151q-.022.548-.015,1.1h-.273V48.373h.273a.482.482,0,0,0,.015.164A1.169,1.169,0,0,1,40.168,48.345Zm0,0" transform="translate(-39.566 -48.34)" fill="#fff" fill-rule="evenodd"/>
  </g>
  <g id="Group_17458" data-name="Group 17458" transform="translate(18.141 18.009)">
    <path id="Path_9585" data-name="Path 9585" d="M49.24,48.343a.806.806,0,1,1-.548.769A.725.725,0,0,1,49.24,48.343Zm.111.22a.539.539,0,0,1,.547.55q-.081.7-.739.481a.616.616,0,0,1,.028-.961C49.242,48.609,49.3,48.586,49.35,48.562Zm0,0" transform="translate(-48.691 -48.335)" fill="#fff" fill-rule="evenodd"/>
  </g>
  <g id="Group_17459" data-name="Group 17459" transform="translate(24.108 18.004)">
    <path id="Path_9586" data-name="Path 9586" d="M65.273,48.335a.736.736,0,0,1,.891.55.766.766,0,0,1-.713,1.017.717.717,0,0,1-.713-.577.9.9,0,0,1,.233-.838A1.218,1.218,0,0,1,65.273,48.335Zm.111.22a.539.539,0,0,1,.547.564.49.49,0,0,1-.6.521.557.557,0,0,1-.356-.521A.581.581,0,0,1,65.384,48.555Zm0,0" transform="translate(-64.717 -48.323)" fill="#fff" fill-rule="evenodd"/>
  </g>
  <g id="Group_17460" data-name="Group 17460" transform="translate(26.802 18.016)">
    <path id="Path_9587" data-name="Path 9587" d="M72.529,48.355q1.069.009.862,1.072a.72.72,0,0,1-.685.494.766.766,0,0,1-.753-.8A.747.747,0,0,1,72.529,48.355Zm.109.22a.479.479,0,0,1,.508.385.583.583,0,0,1-.316.7c-.454.013-.65-.212-.589-.672A.493.493,0,0,1,72.638,48.575Zm0,0" transform="translate(-71.953 -48.355)" fill="#fff" fill-rule="evenodd"/>
  </g>
  <g id="Group_17461" data-name="Group 17461" transform="translate(28.665 18.016)">
    <path id="Path_9588" data-name="Path 9588" d="M77.561,48.355H77.7a1.445,1.445,0,0,1-.013.275.467.467,0,0,0-.467.192c-.013.348-.017.7-.013,1.044h-.247V48.383H77.2a.7.7,0,0,0,.013.192A1,1,0,0,1,77.561,48.355Zm0,0" transform="translate(-76.957 -48.355)" fill="#fff" fill-rule="evenodd"/>
  </g>
  <g id="Group_17462" data-name="Group 17462" transform="translate(32.294 18.013)">
    <path id="Path_9589" data-name="Path 9589" d="M87.27,48.351q.894-.05.877.852c-.394-.01-.787,0-1.179.028a.54.54,0,0,0,.8.4,1.034,1.034,0,0,0,.164-.124l.137.166a.865.865,0,0,1-.849.205.74.74,0,0,1-.48-.508A.8.8,0,0,1,87.27,48.351Zm.026.22a.486.486,0,0,1,.6.441c-.311,0-.621,0-.932-.015A.607.607,0,0,1,87.3,48.571Zm0,0" transform="translate(-86.705 -48.348)" fill="#fff" fill-rule="evenodd"/>
  </g>
  <g id="Group_17463" data-name="Group 17463" transform="translate(36.472 18.005)">
    <path id="Path_9590" data-name="Path 9590" d="M98.479,48.337a.89.89,0,0,1,.657.151.31.31,0,0,1,.083.124c-.055.047-.111.092-.164.138a.467.467,0,0,0-.755,0,.78.78,0,0,0-.026.686.489.489,0,0,0,.7.124.854.854,0,0,0,.083-.1.3.3,0,0,1,.15.192.751.751,0,0,1-1,.1.889.889,0,0,1-.205-1A.816.816,0,0,1,98.479,48.337Zm0,0" transform="translate(-97.927 -48.326)" fill="#fff" fill-rule="evenodd"/>
  </g>
  <g id="Group_17464" data-name="Group 17464" transform="translate(38.735 18.013)">
    <path id="Path_9591" data-name="Path 9591" d="M104.569,48.351q.894-.05.877.852c-.393-.01-.785,0-1.178.028a.538.538,0,0,0,.794.4,1.034,1.034,0,0,0,.164-.124c.045.054.092.109.137.166a.865.865,0,0,1-.849.205.787.787,0,0,1-.48-.974A.716.716,0,0,1,104.569,48.351Zm.028.22a.485.485,0,0,1,.6.441c-.31,0-.621,0-.931-.015A.6.6,0,0,1,104.6,48.571Zm0,0" transform="translate(-104.006 -48.348)" fill="#fff" fill-rule="evenodd"/>
  </g>
  <g id="Group_17465" data-name="Group 17465" transform="translate(40.449 18.004)">
    <path id="Path_9592" data-name="Path 9592" d="M109.021,48.335a.823.823,0,0,1,.74.234.543.543,0,0,1-.137.151.592.592,0,0,0-.7-.083.15.15,0,0,0,.041.234,3.861,3.861,0,0,0,.521.164.417.417,0,0,1,.26.59.625.625,0,0,1-.547.275,1.024,1.024,0,0,1-.508-.151.251.251,0,0,1-.083-.111.682.682,0,0,1,.124-.177.613.613,0,0,0,.727.15.179.179,0,0,0,0-.3,2.97,2.97,0,0,0-.521-.166.4.4,0,0,1-.234-.618A.645.645,0,0,1,109.021,48.335Zm0,0" transform="translate(-108.609 -48.322)" fill="#fff" fill-rule="evenodd"/>
  </g>
  <g id="Group_17466" data-name="Group 17466" transform="translate(35.846 18.044)">
    <path id="Path_9593" data-name="Path 9593" d="M96.246,48.43h.246v1.483h-.246Zm0,0" transform="translate(-96.246 -48.43)" fill="#fff" fill-rule="evenodd"/>
  </g>
</svg>
